<?xml version="1.0" encoding="UTF-8" standalone="no"?>
<!-- Created with Inkscape (http://www.inkscape.org/) -->

<svg
   width="36.993355mm"
   height="36.993351mm"
   viewBox="0 0 36.993355 36.993351"
   version="1.1"
   id="svg5"
   xmlns="http://www.w3.org/2000/svg"
   xmlns:svg="http://www.w3.org/2000/svg">
  <defs
     id="defs2" />
  <g
     id="layer1"
     transform="translate(-75.567386,-111.96098)">
    <g
       aria-label="+"
       id="text1627"
       style="font-size:73.5687px;line-height:1.25;font-family:Inter;-inkscape-font-specification:Inter;letter-spacing:0px;word-spacing:0px;stroke-width:2.75882"
       transform="translate(19.160042,0.96070708)">
      <path
         d="m 71.815101,147.99362 h 6.177839 a 1.5875,1.5875 135 0 0 1.5875,-1.5875 v -10.64526 a 1.5875,1.5875 135 0 1 1.5875,-1.5875 h 10.645257 a 1.5875,1.5875 135 0 0 1.5875,-1.5875 v -6.17783 a 1.5875,1.5875 45 0 0 -1.5875,-1.5875 H 81.16794 a 1.5875,1.5875 45 0 1 -1.5875,-1.5875 v -10.64526 a 1.5875,1.5875 45 0 0 -1.5875,-1.5875 h -6.177839 a 1.5875,1.5875 135 0 0 -1.5875,1.5875 v 10.64526 a 1.5875,1.5875 135 0 1 -1.5875,1.5875 H 57.994844 a 1.5875,1.5875 135 0 0 -1.5875,1.5875 v 6.17783 a 1.5875,1.5875 45 0 0 1.5875,1.5875 h 10.645257 a 1.5875,1.5875 45 0 1 1.5875,1.5875 v 10.64526 a 1.5875,1.5875 45 0 0 1.5875,1.5875 z"
         style="font-weight:bold;-inkscape-font-specification:'Inter Bold'"
         id="path2813" />
    </g>
  </g>
</svg>
